<svg id="Layer_1" data-name="Layer 1" xmlns="http://www.w3.org/2000/svg" viewBox="0 0 168 100.99"><defs><style>.cls-1{fill:#080808;}.cls-1,.cls-2{fill-rule:evenodd;}.cls-3,.cls-4,.cls-5,.cls-6{fill:none;stroke-width:2px;}.cls-3{stroke:#f6ce17;}.cls-4{stroke:#fc486b;}.cls-5{stroke:#000;}.cls-6{stroke:#03ccac;}</style></defs><g id="Artboard_1" data-name="Artboard 1"><path id="H" class="cls-1" d="M7.16,48.33V80.68H14.5V67.14H26.55V80.68h7.3V48.33h-7.3V60.76h-12V48.33Z" transform="translate(-7 -9.01)"/><path id="Y" class="cls-2" d="M73,80.68V67.19L83.6,48.33H75.39L72.13,56.1c-1,2.3-1.73,4.18-2.45,6.2h-.1c-.82-2.12-1.49-3.84-2.5-6.2l-3.31-7.77H55.41l10.23,19.1V80.68H73Z" transform="translate(-7 -9.01)"/><path id="P" class="cls-2" d="M106.16,80.68h7.25V69.11a19,19,0,0,0,2.5.15c4.32,0,8-1.06,10.51-3.41a10.38,10.38,0,0,0,3-7.68,9.45,9.45,0,0,0-3.46-7.49c-2.16-1.73-5.38-2.59-9.89-2.59a59.57,59.57,0,0,0-9.89.67V80.68Zm7.25-26.78a12.28,12.28,0,0,1,3-.29c3.65,0,5.71,1.77,5.71,4.75,0,3.31-2.4,5.28-6.28,5.28a11.15,11.15,0,0,1-2.45-.19V53.9Z" transform="translate(-7 -9.01)"/><path id="E" class="cls-2" d="M173.41,61.05H161.5V54.33h12.62v-6h-20V80.68H174.8v-6H161.5V67h11.9v-6Z" transform="translate(-7 -9.01)"/><path class="cls-3" d="M7.59,42.75s140.2-73.65,102.27,0" transform="translate(-7 -9.01)"/><path class="cls-3" d="M-316-161" transform="translate(-7 -9.01)"/><path id="Line_1" data-name="Line 1" class="cls-4" d="M8,95V94H174v1Z" transform="translate(-7 -9.01)"/><path id="Line_1_copy" data-name="Line 1 copy" class="cls-5" d="M8,109v-1H174v1Z" transform="translate(-7 -9.01)"/><path class="cls-5" d="M0-145" transform="translate(-7 -9.01)"/><path class="cls-4" d="M-337-168" transform="translate(-7 -9.01)"/><path id="Shape_2_copy_2" data-name="Shape 2 copy 2" class="cls-6" d="M61.59,42.75s140.2-73.65,102.27,0" transform="translate(-7 -9.01)"/></g></svg>